<svg id="Layer_1" fill="#fff" enable-background="new 0 0 512 512" height="512" viewBox="0 0 512 512" width="512" xmlns="http://www.w3.org/2000/svg"><g><path d="m498.343 234.343-18.343 18.343v-164.686c0-13.233-10.767-24-24-24h-16c0-9.722 0-22.482 0-32 0-17.645-14.355-32-32-32s-32 14.355-32 32v32h-280.679c-3.821-22.671-23.58-40-47.321-40-26.468 0-48 21.533-48 48v296c0 26.467 21.532 48 48 48h268.686l-18.343 18.343c-5.022 5.024-1.463 13.657 5.657 13.657h200c4.418 0 8-3.582 8-8v-200c0-7.109-8.623-10.688-13.657-5.657zm-74.343-10.343h-32v-176h32zm-4.133 16-11.867 27.691-11.867-27.691zm-11.867-224c8.822 0 16 7.178 16 16h-32c0-8.822 7.178-16 16-16zm-360 24c17.645 0 32 14.355 32 32v260.261c-18.251-16.359-45.766-16.343-64 0v-260.261c0-17.645 14.355-32 32-32zm0 360c-17.645 0-32-14.355-32-32s14.355-32 32-32 32 14.355 32 32c0 4.418 3.582 8 8 8s8-3.582 8-8v-288h280v151.994c-.004 2.853-.499.483 24.646 59.157 2.763 6.447 11.94 6.456 14.707 0 29.922-69.818 23.099-53.522 24.001-56.002.953-2.219.646 7.453.646-155.149h16c4.411 0 8 3.589 8 8v180.686l-131.314 131.314zm448 32h-172.687l36.686-36.686c2.479 2.479 4.166 4.686 8 4.686 7.06 0 10.715-8.599 5.657-13.657l-2.342-2.343 12.686-12.686c2.479 2.479 4.166 4.686 8 4.686 7.06 0 10.715-8.599 5.657-13.657l-2.343-2.343 12.686-12.686c2.479 2.479 4.166 4.686 8 4.686 7.06 0 10.715-8.599 5.657-13.657l-2.343-2.343 12.686-12.686c2.479 2.479 4.166 4.686 8 4.686 7.06 0 10.715-8.599 5.657-13.657l-2.343-2.343 12.686-12.686c2.479 2.479 4.166 4.686 8 4.686 7.06 0 10.715-8.599 5.657-13.657l-2.343-2.343 28.686-28.686z"/><path d="m343.972 207.454c-.105-1.555-.636-3.012-1.619-4.303-.569-.744 5.14 5.027-80.696-80.808-3.125-3.124-8.189-3.124-11.314 0-86.591 86.591-80.585 80.325-81.436 81.965-1.295 2.484-.907-6.498-.907 131.692 0 4.418 3.582 8 8 8h160c4.418 0 8-3.582 8-8 0-97.104.015-127.916-.028-128.546zm-87.972-68.14 60.687 60.686h-121.374zm-24 188.686v-48h48v48zm96 0h-32v-56c0-4.418-3.582-8-8-8h-64c-4.418 0-8 3.582-8 8v56h-32v-112h144z"/><path d="m466.343 330.343-72 72c-5.022 5.024-1.463 13.657 5.657 13.657h72c4.418 0 8-3.582 8-8v-72c0-7.103-8.622-10.693-13.657-5.657zm-2.343 69.657h-44.687l44.687-44.687z"/><path d="m216 432h-64c-22.056 0-40 17.944-40 40s17.944 40 40 40h64c22.056 0 40-17.944 40-40s-17.944-40-40-40zm-72 17.371v45.258c-21.272-7.542-21.291-37.709 0-45.258zm16-1.371h48v48h-48zm64 46.629v-45.258c21.272 7.542 21.291 37.709 0 45.258z"/></g></svg>